<svg id="Layer_1" data-name="Layer 1" xmlns="http://www.w3.org/2000/svg" xmlns:xlink="http://www.w3.org/1999/xlink" viewBox="0 0 395 227.29"><defs><style>.cls-1{fill:none;}.cls-2{clip-path:url(#clip-path);}.cls-15,.cls-3{fill:#4b3e8b;}.cls-4,.cls-7{fill:#fff;}.cls-5{fill:#b07eff;}.cls-6{fill:#d2bbff;}.cls-10,.cls-11,.cls-13,.cls-15,.cls-6,.cls-7,.cls-8{fill-rule:evenodd;}.cls-14,.cls-8{fill:#70c9eb;}.cls-9{fill:#a1c3ff;}.cls-10{fill:#64a1f4;}.cls-11{fill:#448de8;}.cls-12{fill:#7191ff;}.cls-13{fill:#53c3ff;}</style><clipPath id="clip-path" transform="translate(-7002 -7087.08)"><path class="cls-1" d="M7047.24,7154.37c-17.49,5.65-37.74,14.44-41,32.53-2.11,11.78,4.74,24.12,15.05,30.21,5,3,11.21,5.06,13.84,10.28,4.09,8.11-3.26,17.4-11,22.12s-17.23,8.45-20.76,16.82c-2.33,5.51-1.42,11.94.89,17.46,8.45,20.26,33.1,29.13,55,28s42.71-9.62,64.22-14c73.85-15.1,151.28,19.18,225,3.47,11.48-2.45,23-6.27,31.89-14,10-8.66,15.66-21.73,16.52-34.92.81-12.59-3.65-26.76-14.92-32.44-6.58-3.31-14.45-3.18-21.59-1.37-4.57,1.15-9,2.95-13.76,3s-9.89-2.32-11.25-6.83c-1.44-4.74,1.83-9.63,5.58-12.86,7.62-6.57,17.82-9.86,24.74-17.16a29.23,29.23,0,0,0-11.44-47.66c-23.26-8.26-48.61,14.26-72.4,7.66-1.77-.49-3.63-1.25-4.56-2.83a6.62,6.62,0,0,1-.18-5.21c2.92-9.58,14.24-15.67,14.74-25.67.26-5.44-2.95-10.53-7-14.16-27.84-25-68.18,4.73-96.57,14.11C7141.62,7126.39,7094,7139.27,7047.24,7154.37Z"/></clipPath></defs><title>Untitled-1</title><g class="cls-2"><path class="cls-3" d="M7047.24,7154.37c-17.49,5.65-37.74,14.44-41,32.53-2.11,11.78,4.74,24.12,15.05,30.21,5,3,11.21,5.06,13.84,10.28,4.09,8.11-3.26,17.4-11,22.12s-17.23,8.45-20.76,16.82c-2.33,5.51-1.42,11.94.89,17.46,8.45,20.26,33.1,29.13,55,28s42.71-9.62,64.22-14c73.85-15.1,151.28,19.18,225,3.47,11.48-2.45,23-6.27,31.89-14,10-8.66,15.66-21.73,16.52-34.92.81-12.59-3.65-26.76-14.92-32.44-6.58-3.31-14.45-3.18-21.6-1.37-4.56,1.15-9,2.95-13.75,3s-9.89-2.33-11.25-6.83c-1.44-4.74,1.83-9.63,5.58-12.86,7.62-6.57,17.82-9.86,24.74-17.16a29.23,29.23,0,0,0-11.44-47.66c-23.26-8.26-48.61,14.26-72.4,7.66-1.77-.49-3.63-1.25-4.56-2.83a6.62,6.62,0,0,1-.18-5.21c2.92-9.58,14.24-15.67,14.73-25.68.27-5.43-2.94-10.52-7-14.15-27.84-25-68.18,4.73-96.57,14.11C7141.62,7126.38,7094,7139.27,7047.24,7154.37Z" transform="translate(-7002 -7087.08)"/><path class="cls-4" d="M7149.69,7227.82v0l8.48-5h0l-3.8-6.42h0l-8.47,5s0,0,0,0l-22.27-37.68h0l-8.85,5.23h0l-4.17,54.7a0,0,0,0,1,0,0l3.19,5.39s0,0,0,0l28.16-16.64h0l9.75,16.5h0l7.73-4.56v0Zm-31.42,9.87h0l-.1-.17a0,0,0,0,1,0,0l2.65-29.37v0l-.26-11.92h0l.26-.16h0l5.33,9.66v0l12,20.23h0Z" transform="translate(-7002 -7087.08)"/><path class="cls-4" d="M7302.05,7200.56h0l-8.76-5.38s0,0,0,0L7243,7217s0,0,0,0l-3.28,5.34h0l27.87,17.12v0l-10,16.33s0,0,0,0l7.65,4.7h0l10-16.33h0l8.38,5.16h0l3.9-6.35h0l-8.39-5.16h0Zm-30.58,32.58h0l-19.65-12.07s0,0,0,0l.11-.16s0,0,0,0l27.21-11.37h0l10.42-5.79s0,0,0,0l.26.16h0l-6.05,9.23v0Z" transform="translate(-7002 -7087.08)"/><circle class="cls-5" cx="7199.5" cy="7212.68" r="34.2" transform="translate(-9993.45 116.28) rotate(-45)"/><path class="cls-6" d="M7165.58,7208.42c10.14,1.44,27.2-5.8,32.66-6.86,11.12-2.16,22.53.41,33.86.78a33.58,33.58,0,0,0-3.14-7c-4.17.17-8.56-.55-12.76-.67-8-.24-15.92,1.86-23.88,1.38-3.69-.23-12-3.45-19.51-4.72A34,34,0,0,0,7165.58,7208.42Z" transform="translate(-7002 -7087.08)"/><path class="cls-6" d="M7199.5,7178.48a34,34,0,0,0-10,1.49c4.29,2.44,12.87,3.32,14.87,3.59,3.58.48,7.47.65,10.54-1.25l.13-.08A34,34,0,0,0,7199.5,7178.48Z" transform="translate(-7002 -7087.08)"/><path class="cls-6" d="M7233.68,7213.15a66.3,66.3,0,0,0-30.21-.52c-5.39,1.18-10.62,3-16,4.36a83.85,83.85,0,0,1-20.63,2.41c-.3,0-.59,0-.9,0a34.2,34.2,0,0,0,9.53,17.66,118.19,118.19,0,0,0,23.41-11.34c6.43-4.06,12.87-8.88,20.44-9.57,4.69-.43,9.31.79,14,1.75A33.27,33.27,0,0,0,7233.68,7213.15Z" transform="translate(-7002 -7087.08)"/><path class="cls-6" d="M7231.87,7223.69c-4.64-.68-12.93,3.4-15,5.11-1.81,1.54-3.34,3.41-5.29,4.76-2.49,1.71-5.49,2.45-8.41,3.21q-8.84,2.28-17.53,5a3.11,3.11,0,0,0-1.9,1.23,34.26,34.26,0,0,0,27,1.9c3.55-5.07,5.67-11.63,11.29-14,.95-.4,4.28-.88,7.3-1.66A34.13,34.13,0,0,0,7231.87,7223.69Z" transform="translate(-7002 -7087.08)"/><path class="cls-7" d="M7301.61,7314.37a98,98,0,0,0-192.58,0Z" transform="translate(-7002 -7087.08)"/><path class="cls-8" d="M7223.27,7290.61c-.45,3.44-5.77,5.57-11.88,4.76s-10.69-4.24-10.24-7.67,5.77-5.57,11.88-4.76S7223.72,7287.18,7223.27,7290.61Z" transform="translate(-7002 -7087.08)"/><circle class="cls-9" cx="131.87" cy="67.31" r="12.65"/><path class="cls-10" d="M7133.87,7141.74a12.59,12.59,0,0,0-6.19,1.63,2.1,2.1,0,0,0,.31.41c1.28,1.29,4.32,1.35,6,1.43a20.63,20.63,0,0,0,7.36-1A12.53,12.53,0,0,0,7133.87,7141.74Z" transform="translate(-7002 -7087.08)"/><path class="cls-10" d="M7143.54,7148.51a7.34,7.34,0,0,0,1.22-.52,13.53,13.53,0,0,0-1.09-1.59l-3.79,1.7a19.13,19.13,0,0,1-3,1.15,18.13,18.13,0,0,1-4.71.41,95.6,95.6,0,0,1-9.72-.69,12.6,12.6,0,0,0-1.23,5.42,12.43,12.43,0,0,0,.29,2.68,12,12,0,0,0,1.86-1.08,25.23,25.23,0,0,1,5.24-2.29Z" transform="translate(-7002 -7087.08)"/><path class="cls-10" d="M7145.49,7149.41c-1,.87-1.71,2-2.78,2.87a14.62,14.62,0,0,1-3.7,2.12c-.94.37-1.91.64-2.81,1.09a1.3,1.3,0,0,0-.77.77c-.15.65.61,1.11,1.26,1.26a14.34,14.34,0,0,0,3.93.19l4.67-.2.84-.07a12.8,12.8,0,0,0,.38-3A12.53,12.53,0,0,0,7145.49,7149.41Z" transform="translate(-7002 -7087.08)"/><path class="cls-10" d="M7134.2,7154.05a29.35,29.35,0,0,0-6.53,2.13,32.72,32.72,0,0,1-4.21,1.84,7.07,7.07,0,0,1-1.65.21,12.67,12.67,0,0,0,4,5.93c.13-.15.26-.31.38-.47,1.89-2.51,3.17-5.68,5.9-7.24a8.71,8.71,0,0,0,1.47-.89A1.62,1.62,0,0,0,7134.2,7154.05Z" transform="translate(-7002 -7087.08)"/><path class="cls-10" d="M7145.29,7159.8a3,3,0,0,0-.42,0l-8.1.45a9.5,9.5,0,0,0-4.84,1.16,9.4,9.4,0,0,0-2.48,3c-.23.37-.65.89-1,1.44a12.73,12.73,0,0,0,5.12,1.23c.33-.42.63-.87.95-1.29a11.15,11.15,0,0,1,7.61-4.31c.79-.08,1.59-.08,2.38-.17A12.13,12.13,0,0,0,7145.29,7159.8Z" transform="translate(-7002 -7087.08)"/><path class="cls-11" d="M7145.47,7159.42a12.51,12.51,0,0,0,.76-2.36,84,84,0,0,1-22.85,4.41,12,12,0,0,0,1.58,1.9,81,81,0,0,0,10.43-1.38A84,84,0,0,0,7145.47,7159.42Z" transform="translate(-7002 -7087.08)"/><path class="cls-4" d="M7121.46,7162.49c-4.53,0-8.23-.72-8.65-2.9s2.28-4.19,8-6.34a1,1,0,1,1,.7,1.86c-5.76,2.18-6.78,3.81-6.72,4.1.21,1.09,7.35,2.34,20.25-.16a70,70,0,0,0,14.05-4.09c4.17-1.82,4.85-3.09,4.8-3.32s-1.69-1.48-8.17-1.29a1,1,0,0,1-1-1,1,1,0,0,1,1-1c6.34-.19,9.78.78,10.18,2.89.35,1.81-1.6,3.61-6,5.52a71.44,71.44,0,0,1-14.46,4.22A79.74,79.74,0,0,1,7121.46,7162.49Z" transform="translate(-7002 -7087.08)"/><circle class="cls-12" cx="7329.61" cy="7177.96" r="10.19" transform="translate(-8227.37 -5571.15) rotate(-10.9)"/><path class="cls-13" d="M7334.46,7169a10.11,10.11,0,0,0-5-1.23,1.42,1.42,0,0,0,.06.42c.41,1.4,2.54,2.61,3.72,3.32a16.87,16.87,0,0,0,5.59,2.13A10.14,10.14,0,0,0,7334.46,7169Z" transform="translate(-7002 -7087.08)"/><path class="cls-13" d="M7338.72,7177.5a5.44,5.44,0,0,0,1.06.1,9,9,0,0,0-.16-1.55l-3.33-.25a15.85,15.85,0,0,1-2.57-.33,14.4,14.4,0,0,1-3.49-1.51,76.58,76.58,0,0,1-6.62-4.22,10.08,10.08,0,0,0-3,3.37,10.23,10.23,0,0,0-.82,2,9.13,9.13,0,0,0,1.73-.06,20.93,20.93,0,0,1,4.6.39Z" transform="translate(-7002 -7087.08)"/><path class="cls-13" d="M7339.76,7178.88c-1,.25-2,.79-3.07,1a12,12,0,0,1-3.44.08c-.8-.1-1.6-.28-2.41-.3a1,1,0,0,0-.84.25c-.35.4,0,1,.41,1.38a11.62,11.62,0,0,0,2.71,1.63l3.39,1.65.62.28a10.09,10.09,0,0,0,2.63-5.94Z" transform="translate(-7002 -7087.08)"/><path class="cls-13" d="M7330,7177.84a23.47,23.47,0,0,0-5.45-1,28.25,28.25,0,0,1-3.68-.31,6.09,6.09,0,0,1-1.25-.49,10.2,10.2,0,0,0,.57,5.74c.15-.05.3-.12.45-.18,2.3-1.06,4.43-2.81,7-2.87a7.06,7.06,0,0,0,1.38-.06A1.3,1.3,0,0,0,7330,7177.84Z" transform="translate(-7002 -7087.08)"/><path class="cls-13" d="M7335.63,7186.17a1.75,1.75,0,0,0-.29-.18l-5.91-2.78a5.65,5.65,0,0,0-6.76.11c-.31.18-.81.38-1.29.62a10.14,10.14,0,0,0,3.15,2.84c.4-.17.78-.37,1.17-.55a9,9,0,0,1,7-.13c.59.25,1.16.55,1.75.79A9.53,9.53,0,0,0,7335.63,7186.17Z" transform="translate(-7002 -7087.08)"/><path class="cls-4" d="M7110.29,7279.64h19.91a3.94,3.94,0,0,1,3.94,3.94v4a0,0,0,0,1,0,0h-27.78a0,0,0,0,1,0,0v-4A3.94,3.94,0,0,1,7110.29,7279.64Z" transform="translate(-9645.31 3098.6) rotate(-62.2)"/><path class="cls-4" d="M7285.89,7282.13h13a3.94,3.94,0,0,1,3.94,3.94v4a0,0,0,0,1,0,0H7282a0,0,0,0,1,0,0v-4a3.94,3.94,0,0,1,3.94-3.94Z" transform="translate(4352.34 -9275.49) rotate(68.23)"/><path class="cls-4" d="M7149,7243.93h19.91a3.94,3.94,0,0,1,3.94,3.94v4a0,0,0,0,1,0,0H7145a0,0,0,0,1,0,0v-4A3.94,3.94,0,0,1,7149,7243.93Z" transform="translate(-9885.63 -1550.71) rotate(-35.68)"/><path class="cls-4" d="M7256.13,7254.35H7276a3.94,3.94,0,0,1,3.94,3.94v4a0,0,0,0,1,0,0H7252.2a0,0,0,0,1,0,0v-4A3.94,3.94,0,0,1,7256.13,7254.35Z" transform="translate(-1154.71 -10000.59) rotate(37.09)"/><ellipse class="cls-14" cx="7159.68" cy="7266.75" rx="15.63" ry="6.94" transform="translate(-9515.94 -3058.82) rotate(-26.92)"/><path class="cls-15" d="M7157.53,7263.53c6.95-3.53,13.84-4.18,16.4-1.75a3.64,3.64,0,0,0-.31-2.11c-1.74-3.42-9.39-3-17.08.89s-12.53,9.84-10.79,13.26a3.4,3.4,0,0,0,.68.88C7146.87,7271.27,7151.24,7266.72,7157.53,7263.53Z" transform="translate(-7002 -7087.08)"/><path class="cls-8" d="M7267.73,7271.45c-1.37,2.18-6.45,1.46-11.37-1.61s-7.78-7.33-6.42-9.51,6.45-1.47,11.37,1.6S7269.09,7269.26,7267.73,7271.45Z" transform="translate(-7002 -7087.08)"/><path class="cls-15" d="M7259.94,7263.54c4.44,2.77,7.2,6.51,6.69,8.81a2.34,2.34,0,0,0,1.1-.9c1.36-2.19-1.51-6.44-6.42-9.52s-10-3.79-11.37-1.6a2.31,2.31,0,0,0-.27.69C7251.79,7260.09,7255.92,7261,7259.94,7263.54Z" transform="translate(-7002 -7087.08)"/><path class="cls-15" d="M7213,7282.94c-6.11-.81-11.43,1.32-11.88,4.76a3.66,3.66,0,0,0,0,.74c1.32-2.77,6.11-4.37,11.54-3.66,5.66.75,10,3.76,10.25,6.93a3.52,3.52,0,0,0,.34-1.1C7223.72,7287.18,7219.14,7283.74,7213,7282.94Z" transform="translate(-7002 -7087.08)"/><circle class="cls-14" cx="59.22" cy="111.13" r="3.22"/><path class="cls-8" d="M7248.6,7109.91a1.45,1.45,0,1,1,1.44-1.44A1.44,1.44,0,0,1,7248.6,7109.91Z" transform="translate(-7002 -7087.08)"/><circle class="cls-14" cx="267.1" cy="48.22" r="1.45"/><circle class="cls-14" cx="25.49" cy="95.3" r="1.45"/><path class="cls-7" d="M7234.34,7160.72a1.86,1.86,0,1,1-1.86-1.86A1.86,1.86,0,0,1,7234.34,7160.72Z" transform="translate(-7002 -7087.08)"/><path class="cls-7" d="M7312.59,7246.29a1.86,1.86,0,1,1-1.86-1.86A1.86,1.86,0,0,1,7312.59,7246.29Z" transform="translate(-7002 -7087.08)"/><path class="cls-7" d="M7367.53,7249.39a1.86,1.86,0,1,1-1.86-1.87A1.86,1.86,0,0,1,7367.53,7249.39Z" transform="translate(-7002 -7087.08)"/><path class="cls-7" d="M7074.49,7276.55a1.87,1.87,0,1,1-1.86-1.87A1.87,1.87,0,0,1,7074.49,7276.55Z" transform="translate(-7002 -7087.08)"/><path class="cls-7" d="M7182,7141.74a1.87,1.87,0,1,1-1.86-1.86A1.87,1.87,0,0,1,7182,7141.74Z" transform="translate(-7002 -7087.08)"/><polygon class="cls-7" points="157.43 99.92 159.91 101.34 157.38 102.66 155.96 105.14 154.63 102.61 152.15 101.19 154.69 99.87 156.1 97.39 157.43 99.92"/><polygon class="cls-7" points="274.37 73.79 275.99 74.72 274.34 75.58 273.41 77.2 272.55 75.55 270.93 74.63 272.58 73.76 273.51 72.14 274.37 73.79"/><polygon class="cls-7" points="83.06 151.59 84.68 152.51 83.03 153.38 82.1 155 81.24 153.35 79.61 152.42 81.27 151.56 82.2 149.94 83.06 151.59"/><polygon class="cls-7" points="83.99 85.48 85.61 86.41 83.95 87.27 83.03 88.89 82.16 87.24 80.54 86.31 82.2 85.45 83.12 83.83 83.99 85.48"/><polygon class="cls-7" points="34.41 184.13 36.03 185.06 34.38 185.93 33.45 187.55 32.59 185.89 30.97 184.97 32.62 184.1 33.55 182.48 34.41 184.13"/><polygon class="cls-7" points="328.91 138.39 330.53 139.32 328.87 140.19 327.95 141.81 327.08 140.15 325.46 139.22 327.12 138.36 328.04 136.74 328.91 138.39"/><polygon class="cls-7" points="348.91 203.65 350.53 204.57 348.88 205.44 347.95 207.06 347.08 205.4 345.46 204.48 347.12 203.61 348.04 201.99 348.91 203.65"/></g></svg>