<?xml version="1.0" encoding="utf-8"?>
<!-- Generator: Adobe Illustrator 22.0.1, SVG Export Plug-In . SVG Version: 6.00 Build 0)  -->
<svg version="1.1" id="Layer_1" xmlns="http://www.w3.org/2000/svg" xmlns:xlink="http://www.w3.org/1999/xlink" x="0px" y="0px"
	 viewBox="0 0 395 227.3" style="enable-background:new 0 0 395 227.3;" xml:space="preserve">
<style type="text/css">
	.st0{clip-path:url(#SVGID_2_);}
	.st1{fill:#4ABCF4;}
	.st2{fill:#26A0DD;}
	.st3{fill:#EF9426;}
	.st4{fill:#EFEFEF;}
	.st5{fill:#FFFFFF;}
	.st6{fill:#191C2D;}
	.st7{fill:#272A44;}
	.st8{clip-path:url(#XMLID_7_);}
	.st9{fill:#1A96C6;}
	.st10{fill:#414556;}
	.st11{fill:#C1C4D3;}
	.st12{fill:#DADCEA;}
	.st13{fill:#37A8EE;}
	.st14{fill:#D7CDCD;}
	.st15{fill:#E8E6E6;}
	.st16{fill:#E73A3A;}
	.st17{fill:#EED467;}
	.st18{fill:#63CD63;}
	.st19{fill:none;stroke:#FFFFFF;stroke-miterlimit:10;}
	.st20{fill:none;stroke:#FFFFFF;stroke-linecap:round;stroke-linejoin:round;stroke-miterlimit:10;}
</style>
<title>Untitled-1</title>
<g>
	<defs>
		<path id="SVGID_1_" d="M45.2,68.5C27.7,74.2,7.5,83,4.2,101c-2.1,11.8,4.7,24.1,15,30.2c5,3,11.2,5.1,13.8,10.3
			c4.1,8.1-3.3,17.4-11,22.1c-7.8,4.7-17.2,8.5-20.8,16.8c-2.3,5.5-1.4,11.9,0.9,17.5c8.5,20.3,33.1,29.1,55,28
			c21.9-1.1,42.7-9.6,64.2-14c73.9-15.1,151.3,19.2,225,3.5c11.5-2.4,23-6.3,31.9-14c10-8.7,15.7-21.7,16.5-34.9
			c0.8-12.6-3.6-26.8-14.9-32.4c-6.6-3.3-14.5-3.2-21.6-1.4c-4.6,1.2-9,3-13.8,3c-4.7,0-9.9-2.3-11.3-6.8c-1.4-4.7,1.8-9.6,5.6-12.9
			c7.6-6.6,17.8-9.9,24.7-17.2c6.7-7,9.5-17.5,7.2-26.9c-2.3-9.4-9.5-17.5-18.6-20.7c-23.3-8.3-48.6,14.3-72.4,7.7
			c-1.8-0.5-3.6-1.2-4.6-2.8c-0.9-1.5-0.7-3.5-0.2-5.2c2.9-9.6,14.2-15.7,14.7-25.7c0.3-5.4-2.9-10.5-7-14.2
			c-27.8-25-68.2,4.7-96.6,14.1C139.6,40.5,92,53.4,45.2,68.5z"/>
	</defs>
	<clipPath id="SVGID_2_">
		<use xlink:href="#SVGID_1_"  style="overflow:visible;"/>
	</clipPath>
	<g class="st0">
		<path class="st1" d="M45.2,68.5C27.7,74.2,7.5,83,4.2,101c-2.1,11.8,4.7,24.1,15,30.2c5,3,11.2,5.1,13.8,10.3
			c4.1,8.1-3.3,17.4-11,22.1c-7.8,4.7-17.2,8.5-20.8,16.8c-2.3,5.5-1.4,11.9,0.9,17.5c8.5,20.3,33.1,29.1,55,28
			c21.9-1.1,42.7-9.6,64.2-14c73.9-15.1,151.3,19.2,225,3.5c11.5-2.4,23-6.3,31.9-14c10-8.7,15.7-21.7,16.5-34.9
			c0.8-12.6-3.6-26.8-14.9-32.4c-6.6-3.3-14.5-3.2-21.6-1.4c-4.6,1.2-9,3-13.8,3c-4.7,0-9.9-2.3-11.3-6.8c-1.4-4.7,1.8-9.6,5.6-12.9
			c7.6-6.6,17.8-9.9,24.7-17.2c6.7-7,9.5-17.5,7.2-26.9c-2.3-9.4-9.5-17.5-18.6-20.7c-23.3-8.3-48.6,14.3-72.4,7.7
			c-1.8-0.5-3.6-1.2-4.6-2.8c-0.9-1.5-0.7-3.5-0.2-5.2c2.9-9.6,14.2-15.7,14.7-25.7c0.3-5.4-2.9-10.5-7-14.2
			c-27.8-25-68.2,4.7-96.6,14.1C139.6,40.5,92,53.4,45.2,68.5z"/>
		<path id="XMLID_836_" class="st2" d="M312.9,176.2C312.9,176.2,312.8,176.2,312.9,176.2c-0.1-0.1-0.1-0.1-0.2-0.1
			c-0.1,0-0.1,0-0.2-0.1c0,0-0.1,0-0.1,0c-0.1,0-0.1,0-0.2,0c0,0-0.1,0-0.1,0c0,0-0.1,0-0.1,0c-0.1,0-0.1,0-0.2,0
			c-0.2,0-0.5,0-0.7-0.1c-0.3,0-0.5,0-0.8,0h-94.5c-0.1,0-0.2,0-0.3,0c0,0-0.1,0-0.1,0c0,0-0.1,0-0.1,0c-0.1,0-0.1,0-0.2,0
			c-0.1,0-0.1,0-0.2,0c0,0-0.1,0-0.1,0c-0.1,0-0.1,0-0.2,0c-0.1,0-0.2,0-0.2,0c0,0,0,0,0,0c-0.1,0-0.2,0-0.2,0
			c-0.4,0-0.8,0.1-1.2,0.1c-0.1,0-0.2,0-0.2,0c-0.2,0-0.3,0-0.5,0.1c-0.2,0-0.3,0-0.5,0.1c0,0-0.1,0-0.1,0h0c0,0-0.1,0-0.1,0
			c-0.2,0-0.4,0.1-0.6,0.1c0,0,0,0-0.1,0c-0.3,0.1-0.6,0.1-0.9,0.2c-0.2,0.1-0.5,0.1-0.7,0.2c-0.1,0-0.2,0-0.3,0.1
			c-0.1,0-0.3,0.1-0.4,0.1c0,0-0.1,0-0.1,0c-0.1,0-0.1,0-0.2,0.1c-0.1,0-0.1,0-0.2,0.1c-0.2,0.1-0.4,0.1-0.6,0.2c0,0-0.1,0-0.1,0
			c0,0-0.1,0-0.1,0c0,0-0.1,0-0.1,0c-0.1,0-0.1,0-0.2,0.1c-0.1,0-0.1,0-0.2,0.1c-0.1,0-0.1,0-0.2,0.1l-39.3,17.7h0h0l-3,1.4
			c-2.1,0.9-1.2,1.7,1.9,1.7h31.2c-13.1,5.3-22.7,6.2-23,6.3h-0.1c-0.2,0-0.4,0-0.5,0.1l-0.2,0.1c-0.1,0.1-0.1,0.1,0.1,0.1
			c0,0,48.2,0,49.4,0c1.2,0-4.3-1.2,6.3-6.5h31.2c3.1,0,7.3-0.8,9.3-1.7l42.3-19C313.4,177,313.6,176.6,312.9,176.2z"/>
		<g id="XMLID_767_">
			<path id="XMLID_889_" class="st2" d="M326.1,184.2h-3.2c0.1-0.6,0.8-1.2,1.6-1.2C325.4,183.1,326.1,183.6,326.1,184.2z"/>
			<path id="XMLID_1064_" class="st2" d="M323.3,204.8h4.6l0-0.1c0-0.2-0.2-0.3-0.7-0.3l0,0l26-13h-1.8l-0.5,0.2h-57.9l0.5-0.2h-1.8
				l-26,13h-0.1c-0.5,0-1.1,0.1-1.8,0.3l-0.3,0.1h4.6l0-0.1c0-0.2-0.2-0.3-0.7-0.3l0,0l20.5-10.3H346l-20.5,10.3h-0.1
				c-0.5,0-1.1,0.1-1.8,0.3L323.3,204.8z"/>
			<g id="XMLID_1032_">
				<g id="XMLID_1045_">
					<polygon id="XMLID_1063_" class="st3" points="266,186.2 269.1,186.2 266,182.4 					"/>
					<polygon id="XMLID_1062_" class="st4" points="266,181.9 266,182.4 269.1,186.2 272.8,186.2 269.3,181.9 					"/>
					<polygon id="XMLID_1061_" class="st3" points="269.3,181.9 272.8,186.2 276.5,186.2 273,181.9 					"/>
					<polygon id="XMLID_1060_" class="st4" points="273,181.9 276.5,186.2 280.3,186.2 276.7,181.9 					"/>
					<polygon id="XMLID_1059_" class="st3" points="276.7,181.9 280.3,186.2 284,186.2 280.5,181.9 					"/>
					<polygon id="XMLID_1058_" class="st4" points="280.5,181.9 284,186.2 287.7,186.2 284.2,181.9 					"/>
					<polygon id="XMLID_1057_" class="st3" points="284.2,181.9 287.7,186.2 291.4,186.2 287.9,181.9 					"/>
					<polygon id="XMLID_1056_" class="st4" points="287.9,181.9 291.4,186.2 295.1,186.2 291.6,181.9 					"/>
					<polygon id="XMLID_1055_" class="st3" points="291.6,181.9 295.1,186.2 298.8,186.2 295.3,181.9 					"/>
					<polygon id="XMLID_1054_" class="st4" points="295.3,181.9 298.8,186.2 302.6,186.2 299.1,181.9 					"/>
					<polygon id="XMLID_1053_" class="st3" points="299.1,181.9 302.6,186.2 306.3,186.2 302.8,181.9 					"/>
					<polygon id="XMLID_1052_" class="st4" points="302.8,181.9 306.3,186.2 310,186.2 306.5,181.9 					"/>
					<polygon id="XMLID_1051_" class="st3" points="306.5,181.9 310,186.2 313.7,186.2 310.2,181.9 					"/>
					<polygon id="XMLID_1050_" class="st4" points="310.2,181.9 313.7,186.2 317.4,186.2 313.9,181.9 					"/>
					<polygon id="XMLID_1049_" class="st3" points="313.9,181.9 317.4,186.2 321.1,186.2 317.6,181.9 					"/>
					<polygon id="XMLID_1048_" class="st4" points="317.6,181.9 321.1,186.2 324.9,186.2 321.4,181.9 					"/>
					<polygon id="XMLID_1047_" class="st3" points="321.4,181.9 324.9,186.2 325.7,186.2 325.7,182.6 325.1,181.9 					"/>
					<polygon id="XMLID_1046_" class="st5" points="325.7,182.6 325.7,181.9 325.1,181.9 					"/>
				</g>
				<g id="XMLID_1039_">
					<g id="XMLID_1043_">
						<rect id="XMLID_1044_" x="265.1" y="181.5" class="st6" width="1.8" height="23.3"/>
					</g>
					<g id="XMLID_1041_">
						<rect id="XMLID_1042_" x="265.1" y="181.5" class="st7" width="0.9" height="23.3"/>
					</g>
					<path id="XMLID_1040_" class="st7" d="M268.2,205h-4.6l0,0c0-0.4,0.3-0.7,0.7-0.7h3.3C268,204.3,268.2,204.6,268.2,205
						L268.2,205z"/>
				</g>
				<g id="XMLID_1033_">
					<g id="XMLID_1037_">
						<rect id="XMLID_1038_" x="324.8" y="181.5" class="st6" width="1.8" height="23.3"/>
					</g>
					<g id="XMLID_1035_">
						<rect id="XMLID_1036_" x="324.8" y="181.5" class="st7" width="0.9" height="23.3"/>
					</g>
					<path id="XMLID_1034_" class="st7" d="M327.9,205h-4.6l0,0c0-0.4,0.3-0.7,0.7-0.7h3.3C327.6,204.3,327.9,204.6,327.9,205
						L327.9,205z"/>
				</g>
			</g>
		</g>
		<g id="XMLID_770_">
			<path id="XMLID_1068_" class="st2" d="M136.5,184.2h-3.2c0.1-0.6,0.8-1.2,1.6-1.2S136.5,183.6,136.5,184.2z"/>
			<path id="XMLID_1067_" class="st2" d="M133.3,204.8h4.6l0-0.1c0.1-0.2-0.1-0.3-0.6-0.3l0,0l29.3-13H165l-0.5,0.2h-57.9l0.5-0.2
				h-1.8l-29.3,13h-0.1c-0.5,0-1.2,0.1-1.9,0.3l-0.3,0.1h4.6l0-0.1c0.1-0.2-0.1-0.3-0.6-0.3l0,0l23.2-10.3h57.9l-23.2,10.3h-0.1
				c-0.5,0-1.2,0.1-1.9,0.3L133.3,204.8z"/>
			<g id="XMLID_771_">
				<g id="XMLID_788_">
					<polygon id="XMLID_1066_" class="st3" points="76.4,186.2 79.5,186.2 76.4,182.4 					"/>
					<polygon id="XMLID_1065_" class="st4" points="76.4,181.9 76.4,182.4 79.5,186.2 83.2,186.2 79.7,181.9 					"/>
					<polygon id="XMLID_1031_" class="st3" points="79.7,181.9 83.2,186.2 86.9,186.2 83.4,181.9 					"/>
					<polygon id="XMLID_835_" class="st4" points="83.4,181.9 86.9,186.2 90.6,186.2 87.1,181.9 					"/>
					<polygon id="XMLID_834_" class="st3" points="87.1,181.9 90.6,186.2 94.4,186.2 90.8,181.9 					"/>
					<polygon id="XMLID_828_" class="st4" points="90.8,181.9 94.4,186.2 98.1,186.2 94.6,181.9 					"/>
					<polygon id="XMLID_821_" class="st3" points="94.6,181.9 98.1,186.2 101.8,186.2 98.3,181.9 					"/>
					<polygon id="XMLID_802_" class="st4" points="98.3,181.9 101.8,186.2 105.5,186.2 102,181.9 					"/>
					<polygon id="XMLID_799_" class="st3" points="102,181.9 105.5,186.2 109.2,186.2 105.7,181.9 					"/>
					<polygon id="XMLID_798_" class="st4" points="105.7,181.9 109.2,186.2 112.9,186.2 109.4,181.9 					"/>
					<polygon id="XMLID_797_" class="st3" points="109.4,181.9 112.9,186.2 116.7,186.2 113.2,181.9 					"/>
					<polygon id="XMLID_795_" class="st4" points="113.2,181.9 116.7,186.2 120.4,186.2 116.9,181.9 					"/>
					<polygon id="XMLID_794_" class="st3" points="116.9,181.9 120.4,186.2 124.1,186.2 120.6,181.9 					"/>
					<polygon id="XMLID_793_" class="st4" points="120.6,181.9 124.1,186.2 127.8,186.2 124.3,181.9 					"/>
					<polygon id="XMLID_792_" class="st3" points="124.3,181.9 127.8,186.2 131.5,186.2 128,181.9 					"/>
					<polygon id="XMLID_791_" class="st4" points="128,181.9 131.5,186.2 135.2,186.2 131.7,181.9 					"/>
					<polygon id="XMLID_790_" class="st3" points="131.7,181.9 135.2,186.2 136,186.2 136,182.6 135.5,181.9 					"/>
					<polygon id="XMLID_789_" class="st5" points="136,182.6 136,181.9 135.5,181.9 					"/>
				</g>
				<g id="XMLID_781_">
					<g id="XMLID_786_">
						<rect id="XMLID_787_" x="75.5" y="181.5" class="st6" width="1.8" height="23.3"/>
					</g>
					<g id="XMLID_784_">
						<rect id="XMLID_785_" x="75.5" y="181.5" class="st7" width="0.9" height="23.3"/>
					</g>
					<path id="XMLID_783_" class="st7" d="M78.6,205H74l0,0c0-0.4,0.3-0.7,0.7-0.7H78C78.3,204.3,78.6,204.6,78.6,205L78.6,205z"/>
				</g>
				<g id="XMLID_772_">
					<g id="XMLID_778_">
						<rect id="XMLID_779_" x="135.2" y="181.5" class="st6" width="1.8" height="23.3"/>
					</g>
					<g id="XMLID_776_">
						<rect id="XMLID_777_" x="135.2" y="181.5" class="st7" width="0.9" height="23.3"/>
					</g>
					<path id="XMLID_775_" class="st7" d="M138.3,205h-4.6l0,0c0-0.4,0.3-0.7,0.7-0.7h3.3C138,204.3,138.3,204.6,138.3,205
						L138.3,205z"/>
				</g>
			</g>
		</g>
		<g id="XMLID_1077_">
			<defs>
				<rect id="XMLID_1027_" x="23.2" y="-18.2" width="348.6" height="213.1"/>
			</defs>
			<clipPath id="XMLID_7_">
				<use xlink:href="#XMLID_1027_"  style="overflow:visible;"/>
			</clipPath>
			<g id="XMLID_890_" class="st8">
				<path id="XMLID_1026_" class="st2" d="M319.1,164.5H76.8c-0.7,0-1.3-0.6-1.3-1.3l0,0c0-0.7,0.6-1.3,1.3-1.3h242.3
					c0.7,0,1.3,0.6,1.3,1.3l0,0C320.4,163.9,319.8,164.5,319.1,164.5z"/>
				<g id="XMLID_914_">
					<g id="XMLID_997_">
						<g id="XMLID_1023_">
							<rect id="XMLID_1025_" x="129.4" y="-39.6" class="st2" width="4.5" height="176.6"/>
							<rect id="XMLID_1024_" x="152.5" y="-39.6" class="st2" width="4.5" height="176.6"/>
						</g>
						<g id="XMLID_998_">
							<g id="XMLID_1020_">
								
									<rect id="XMLID_1022_" x="142.2" y="-40.1" transform="matrix(0.7071 -0.7071 0.7071 0.7071 59.0735 94.1752)" class="st2" width="2.1" height="31.8"/>
								
									<rect id="XMLID_1021_" x="142.2" y="-40.1" transform="matrix(-0.7071 -0.7071 0.7071 -0.7071 261.6139 59.9196)" class="st2" width="2.1" height="31.8"/>
							</g>
							<g id="XMLID_1017_">
								
									<rect id="XMLID_1019_" x="142.2" y="-19" transform="matrix(0.7071 -0.7071 0.7071 0.7071 44.1399 100.3643)" class="st2" width="2.1" height="31.8"/>
								
									<rect id="XMLID_1018_" x="142.2" y="-19" transform="matrix(-0.7071 -0.7071 0.7071 -0.7071 246.6759 95.9812)" class="st2" width="2.1" height="31.8"/>
							</g>
							<g id="XMLID_1014_">
								
									<rect id="XMLID_1016_" x="142.2" y="2.1" transform="matrix(0.7071 -0.7071 0.7071 0.7071 29.2036 106.5513)" class="st2" width="2.1" height="31.8"/>
								
									<rect id="XMLID_1015_" x="142.2" y="2.1" transform="matrix(-0.7071 -0.7071 0.7071 -0.7071 231.7399 132.0399)" class="st2" width="2.1" height="31.8"/>
							</g>
							<g id="XMLID_1011_">
								
									<rect id="XMLID_1013_" x="142.2" y="23.3" transform="matrix(0.7071 -0.7071 0.7071 0.7071 14.2672 112.7384)" class="st2" width="2.1" height="31.8"/>
								
									<rect id="XMLID_1012_" x="142.2" y="23.3" transform="matrix(-0.7071 -0.7071 0.7071 -0.7071 216.8039 168.0986)" class="st2" width="2.1" height="31.8"/>
							</g>
							<g id="XMLID_1008_">
								
									<rect id="XMLID_1010_" x="142.2" y="44.4" transform="matrix(0.7071 -0.7071 0.7071 0.7071 -0.6692 118.9254)" class="st2" width="2.1" height="31.8"/>
								
									<rect id="XMLID_1009_" x="142.2" y="44.4" transform="matrix(-0.7071 -0.7071 0.7071 -0.7071 201.8679 204.1573)" class="st2" width="2.1" height="31.8"/>
							</g>
							<g id="XMLID_1005_">
								
									<rect id="XMLID_1007_" x="142.2" y="65.5" transform="matrix(0.7071 -0.7071 0.7071 0.7071 -15.6066 125.1087)" class="st2" width="2.1" height="31.8"/>
								
									<rect id="XMLID_1006_" x="142.2" y="65.5" transform="matrix(-0.7071 -0.7071 0.7071 -0.7071 186.9356 240.215)" class="st2" width="2.1" height="31.8"/>
							</g>
							<g id="XMLID_1002_">
								
									<rect id="XMLID_1004_" x="142.2" y="86.6" transform="matrix(0.7071 -0.7071 0.7071 0.7071 -30.5426 131.2954)" class="st2" width="2.1" height="31.8"/>
								
									<rect id="XMLID_1003_" x="142.2" y="86.6" transform="matrix(-0.7071 -0.7071 0.7071 -0.7071 172 276.274)" class="st2" width="2.1" height="31.8"/>
							</g>
							<g id="XMLID_999_">
								
									<rect id="XMLID_1001_" x="142.2" y="107.8" transform="matrix(0.7071 -0.7071 0.7071 0.7071 -45.4786 137.4821)" class="st2" width="2.1" height="31.8"/>
								
									<rect id="XMLID_1000_" x="142.2" y="107.8" transform="matrix(-0.7071 -0.7071 0.7071 -0.7071 157.0643 312.3331)" class="st2" width="2.1" height="31.8"/>
							</g>
						</g>
					</g>
					<g id="XMLID_968_">
						<g id="XMLID_994_">
							<rect id="XMLID_996_" x="154.7" y="-39.6" class="st2" width="2.5" height="176.6"/>
							<rect id="XMLID_995_" x="167.5" y="-39.6" class="st2" width="2.5" height="176.6"/>
						</g>
						<g id="XMLID_969_">
							<g id="XMLID_991_">
								<polygon id="XMLID_993_" class="st2" points="169,-13.7 168.2,-12.3 155.7,-34.7 156.5,-36.2 								"/>
								<polygon id="XMLID_992_" class="st2" points="155.7,-13.7 156.5,-12.3 169,-34.7 168.2,-36.2 								"/>
							</g>
							<g id="XMLID_988_">
								<polygon id="XMLID_990_" class="st2" points="169,7.4 168.2,8.9 155.7,-13.6 156.5,-15.1 								"/>
								<polygon id="XMLID_989_" class="st2" points="155.7,7.4 156.5,8.9 169,-13.6 168.2,-15.1 								"/>
							</g>
							<g id="XMLID_985_">
								<polygon id="XMLID_987_" class="st2" points="169,28.5 168.2,30 155.7,7.5 156.5,6.1 								"/>
								<polygon id="XMLID_986_" class="st2" points="155.7,28.5 156.5,30 169,7.5 168.2,6.1 								"/>
							</g>
							<g id="XMLID_982_">
								<polygon id="XMLID_984_" class="st2" points="169,49.6 168.2,51.1 155.7,28.6 156.5,27.2 								"/>
								<polygon id="XMLID_983_" class="st2" points="155.7,49.6 156.5,51.1 169,28.6 168.2,27.2 								"/>
							</g>
							<g id="XMLID_979_">
								<polygon id="XMLID_981_" class="st2" points="169,70.8 168.2,72.2 155.7,49.8 156.5,48.3 								"/>
								<polygon id="XMLID_980_" class="st2" points="155.7,70.8 156.5,72.2 169,49.8 168.2,48.3 								"/>
							</g>
							<g id="XMLID_976_">
								<polygon id="XMLID_978_" class="st2" points="169,91.9 168.2,93.4 155.7,70.9 156.5,69.4 								"/>
								<polygon id="XMLID_977_" class="st2" points="155.7,91.9 156.5,93.4 169,70.9 168.2,69.4 								"/>
							</g>
							<g id="XMLID_973_">
								<polygon id="XMLID_975_" class="st2" points="169,113 168.2,114.5 155.7,92 156.5,90.5 								"/>
								<polygon id="XMLID_974_" class="st2" points="155.7,113 156.5,114.5 169,92 168.2,90.5 								"/>
							</g>
							<g id="XMLID_970_">
								<polygon id="XMLID_972_" class="st2" points="169,134.1 168.2,135.6 155.7,113.1 156.5,111.7 								"/>
								<polygon id="XMLID_971_" class="st2" points="155.7,134.1 156.5,135.6 169,113.1 168.2,111.7 								"/>
							</g>
						</g>
					</g>
					<rect id="XMLID_967_" x="125" y="132" class="st2" width="46.9" height="33.6"/>
					<rect id="XMLID_966_" x="154.7" y="132" class="st2" width="17.3" height="33.6"/>
					<path id="XMLID_965_" class="st2" d="M170.1-39.4h-40.9c-2.1,0-3.9-1.7-3.9-3.9v-30.5c0-2.1,1.7-3.9,3.9-3.9h40.9
						c2.1,0,3.9,1.7,3.9,3.9v30.5C174-41.1,172.3-39.4,170.1-39.4z"/>
					<path id="XMLID_964_" class="st2" d="M171.4-39.4h-17.4c-1.5,0-2.7-1.2-2.7-2.7v-33c0-1.5,1.2-2.7,2.7-2.7h17.4
						c1.5,0,2.7,1.2,2.7,2.7v33C174-40.5,172.8-39.4,171.4-39.4z"/>
					<g id="XMLID_959_">
						<path id="XMLID_963_" class="st2" d="M169-65.8v14.6c0,0.6-0.1,1.2-0.3,1.5c-0.1,0.1-0.1,0.1-0.2,0.1H157
							c-0.3,0-0.6-0.7-0.6-1.6v-14.6c0-0.9,0.2-1.6,0.6-1.6h11.5C168.7-67.4,169-66.7,169-65.8z"/>
						<g id="XMLID_960_">
							<polygon id="XMLID_962_" class="st2" points="163.2,-49.6 158.4,-49.6 156.4,-53.7 156.4,-63.8 							"/>
							<polygon id="XMLID_961_" class="st2" points="168.6,-49.7 160.2,-67.4 157.6,-67.4 166,-49.6 168.4,-49.6 							"/>
						</g>
					</g>
					<g id="XMLID_951_">
						<path id="XMLID_956_" class="st2" d="M158.2-122.1c-0.4-3.1-3-5.5-6.2-5.5c-3.5,0-6.3,2.8-6.3,6.3c0,0.4,0,0.7,0.1,1
							c0.1,0.5,0.2,1,0.5,1.5c0.2,0.4,0.4,0.8,0.7,1.2c0.8,1.1,2,1.9,3.4,2.3c0.5,0.1,1.1,0.2,1.6,0.2c1.1,0,2.1-0.3,3-0.8
							c1-0.6,1.9-1.4,2.5-2.5c0.2-0.3,0.3-0.6,0.4-0.8c0.3-0.7,0.4-1.4,0.4-2.2C158.3-121.6,158.2-121.8,158.2-122.1z M152-118.4
							c-0.6,0-1.2-0.2-1.6-0.5c-0.1-0.1-0.3-0.2-0.4-0.3c-0.4-0.4-0.7-1-0.8-1.6c0-0.2,0-0.3,0-0.5c0-0.2,0-0.4,0.1-0.6
							c0.3-1.3,1.4-2.2,2.8-2.2c1.1,0,2.1,0.7,2.6,1.6c0.2,0.4,0.3,0.8,0.3,1.3c0,0.6-0.2,1.2-0.5,1.7
							C153.8-118.9,153-118.4,152-118.4z"/>
						<path id="XMLID_955_" class="st2" d="M284.4-104l-0.4,2.9l-126.1-18.1l-0.4-0.1l-2.5-0.4l-0.7-0.1c0.3-0.5,0.5-1.1,0.5-1.7
							c0-0.5-0.1-0.9-0.3-1.3l3.6,0.5L284.4-104z"/>
						<path id="XMLID_954_" class="st2" d="M150-119.3l-3,1.7l-0.7,0.4l-27.7,16l-1.5-2.6l28.7-16.6l0.5-0.3l0.5-0.3l2.3-1.3
							l0.1,0.2c0,0.2-0.1,0.4-0.1,0.6c0,0.2,0,0.3,0,0.5C149.3-120.2,149.6-119.7,150-119.3z"/>
						<path id="XMLID_953_" class="st2" d="M150.4-118.9v39.4h-4.1v-41.3h2.9c0.1,0.6,0.4,1.2,0.8,1.6
							C150.1-119.2,150.2-119,150.4-118.9z"/>
						<rect id="XMLID_952_" x="155" y="-120.9" class="st2" width="2.5" height="41.3"/>
					</g>
					<g id="XMLID_916_">
						<g id="XMLID_919_">
							<g id="XMLID_948_">
								
									<rect id="XMLID_950_" x="199" y="-188.8" transform="matrix(6.123234e-17 -1 1 6.123234e-17 280.2471 122.3158)" class="st2" width="4.5" height="219.6"/>
								
									<rect id="XMLID_949_" x="200" y="-190.4" transform="matrix(6.123234e-17 -1 1 6.123234e-17 304.3228 100.1743)" class="st2" width="4.5" height="176.6"/>
							</g>
							<g id="XMLID_920_">
								<g id="XMLID_945_">
									
										<rect id="XMLID_947_" x="128.3" y="-106.4" transform="matrix(-0.7071 -0.7071 0.7071 -0.7071 284.8426 -63.0582)" class="st2" width="2.1" height="31.8"/>
									
										<rect id="XMLID_946_" x="128.3" y="-106.4" transform="matrix(-0.7071 0.7071 -0.7071 -0.7071 156.8273 -245.9999)" class="st2" width="2.1" height="31.8"/>
								</g>
								<g id="XMLID_943_">
									<polygon id="XMLID_944_" class="st2" points="119.1,-80 117.6,-78.6 105.3,-90.9 103,-93.1 104.5,-94.6 106.7,-92.4 
																			"/>
								</g>
								<g id="XMLID_940_">
									
										<rect id="XMLID_942_" x="149.4" y="-106.4" transform="matrix(-0.7071 -0.7071 0.7071 -0.7071 320.9016 -48.1226)" class="st2" width="2.1" height="31.8"/>
									
										<rect id="XMLID_941_" x="149.4" y="-106.4" transform="matrix(-0.7071 0.7071 -0.7071 -0.7071 192.886 -260.9359)" class="st2" width="2.1" height="31.8"/>
								</g>
								<g id="XMLID_937_">
									
										<rect id="XMLID_939_" x="170.6" y="-106.4" transform="matrix(-0.7071 -0.7071 0.7071 -0.7071 356.9607 -33.1869)" class="st2" width="2.1" height="31.8"/>
									
										<rect id="XMLID_938_" x="170.6" y="-106.4" transform="matrix(-0.7071 0.7071 -0.7071 -0.7071 228.9447 -275.8719)" class="st2" width="2.1" height="31.8"/>
								</g>
								<g id="XMLID_934_">
									
										<rect id="XMLID_936_" x="191.7" y="-106.4" transform="matrix(-0.7071 -0.7071 0.7071 -0.7071 393.018 -18.2465)" class="st2" width="2.1" height="31.8"/>
									
										<rect id="XMLID_935_" x="191.7" y="-106.4" transform="matrix(-0.7071 0.7071 -0.7071 -0.7071 264.9987 -290.8097)" class="st2" width="2.1" height="31.8"/>
								</g>
								<g id="XMLID_931_">
									
										<rect id="XMLID_933_" x="212.8" y="-106.4" transform="matrix(-0.7071 -0.7071 0.7071 -0.7071 429.077 -3.3111)" class="st2" width="2.1" height="31.8"/>
									
										<rect id="XMLID_932_" x="212.8" y="-106.4" transform="matrix(-0.7071 0.7071 -0.7071 -0.7071 301.0576 -305.7458)" class="st2" width="2.1" height="31.8"/>
								</g>
								<g id="XMLID_928_">
									
										<rect id="XMLID_930_" x="233.9" y="-106.4" transform="matrix(-0.7071 -0.7071 0.7071 -0.7071 465.1354 11.6255)" class="st2" width="2.1" height="31.8"/>
									
										<rect id="XMLID_929_" x="233.9" y="-106.4" transform="matrix(-0.7071 0.7071 -0.7071 -0.7071 337.1154 -320.6824)" class="st2" width="2.1" height="31.8"/>
								</g>
								<g id="XMLID_925_">
									
										<rect id="XMLID_927_" x="255.1" y="-106.4" transform="matrix(-0.7071 -0.7071 0.7071 -0.7071 501.197 26.5557)" class="st2" width="2.1" height="31.8"/>
									
										<rect id="XMLID_926_" x="255.1" y="-106.4" transform="matrix(-0.7071 0.7071 -0.7071 -0.7071 373.1796 -335.616)" class="st2" width="2.1" height="31.8"/>
								</g>
								<g id="XMLID_921_">
									
										<rect id="XMLID_924_" x="276.2" y="-106.4" transform="matrix(-0.7071 -0.7071 0.7071 -0.7071 537.256 41.4913)" class="st2" width="2.1" height="31.8"/>
									<polygon id="XMLID_923_" class="st2" points="302.3,-92.2 288.6,-78.6 287.2,-80 297.7,-90.5 300.9,-93.7 									"/>
									
										<rect id="XMLID_922_" x="276.2" y="-106.4" transform="matrix(-0.7071 0.7071 -0.7071 -0.7071 409.2383 -350.552)" class="st2" width="2.1" height="31.8"/>
								</g>
							</g>
						</g>
						<polygon id="XMLID_918_" class="st2" points="114,-104.3 115.9,-99.8 93.4,-76.7 91.5,-81.2 						"/>
						<polygon id="XMLID_917_" class="st2" points="313,-81.2 311.1,-76.7 299.1,-89 297.7,-90.5 288.6,-99.8 290.5,-104.3 
							300.9,-93.7 302.3,-92.2 						"/>
					</g>
					<rect id="XMLID_915_" x="129.4" y="-39.6" class="st2" width="40.7" height="5.1"/>
				</g>
				<g id="XMLID_903_">
					<g id="XMLID_908_">
						
							<ellipse id="XMLID_913_" transform="matrix(0.9914 -0.1311 0.1311 0.9914 -16.3369 36.1348)" class="st2" cx="266.2" cy="142.1" rx="8.4" ry="8.4"/>
						
							<ellipse id="XMLID_912_" transform="matrix(0.8116 -0.5842 0.5842 0.8116 -25.9431 182.8641)" class="st2" cx="270.6" cy="131.7" rx="8.4" ry="8.4"/>
						
							<ellipse id="XMLID_911_" transform="matrix(0.9931 -0.1176 0.1176 0.9931 -12.5719 33.0165)" class="st2" cx="273.5" cy="123.1" rx="8.4" ry="8.4"/>
						<path id="XMLID_910_" class="st2" d="M287,127.2c1,4.5-1.9,9-6.4,10.1c-4.5,1-9-1.9-10.1-6.4c-1-4.5,1.9-9,6.4-10.1
							C281.5,119.8,286,122.6,287,127.2z"/>
						<path id="XMLID_909_" class="st2" d="M286.9,140c1,4.5-1.9,9-6.4,10.1c-4.5,1-9-1.9-10.1-6.4c-1-4.5,1.9-9,6.4-10.1
							C281.4,132.6,285.9,135.4,286.9,140z"/>
					</g>
					<g id="XMLID_904_">
						<path id="XMLID_907_" class="st9" d="M273.6,163L273.6,163c-0.3,0-0.6-0.3-0.6-0.6v-30.6c0-0.3,0.3-0.6,0.6-0.6l0,0
							c0.3,0,0.6,0.3,0.6,0.6v30.6C274.2,162.7,273.9,163,273.6,163z"/>
						<path id="XMLID_906_" class="st9" d="M273.4,146.8L273.4,146.8c-0.2-0.2-0.2-0.6,0-0.8l3.3-3.3c0.2-0.2,0.6-0.2,0.8,0l0,0
							c0.2,0.2,0.2,0.6,0,0.8l-3.3,3.3C274,147,273.6,147,273.4,146.8z"/>
						<path id="XMLID_905_" class="st9" d="M274,136.9L274,136.9c0.2-0.2,0.2-0.6,0-0.8l-3.3-3.3c-0.2-0.2-0.6-0.2-0.8,0l0,0
							c-0.2,0.2-0.2,0.6,0,0.8l3.3,3.3C273.4,137.2,273.7,137.2,274,136.9z"/>
					</g>
				</g>
				<g id="XMLID_891_">
					<g id="XMLID_896_">
						<path id="XMLID_902_" class="st2" d="M98.1,138.8c1.2,5.5-2.3,11-7.8,12.3c-5.5,1.2-11-2.3-12.3-7.8c-1.2-5.5,2.3-11,7.8-12.3
							C91.3,129.8,96.8,133.3,98.1,138.8z"/>
						<path id="XMLID_901_" class="st2" d="M103.3,126.1c1.2,5.5-2.3,11-7.8,12.3c-5.5,1.2-11-2.3-12.3-7.8
							c-1.2-5.5,2.3-11,7.8-12.3C96.6,117,102.1,120.5,103.3,126.1z"/>
						<path id="XMLID_900_" class="st2" d="M109.7,115.9c1.2,5.5-2.3,11-7.8,12.3c-5.5,1.2-11-2.3-12.3-7.8
							c-1.2-5.5,2.3-11,7.8-12.3C103,106.9,108.5,110.4,109.7,115.9z"/>
						<path id="XMLID_899_" class="st2" d="M115.3,124.9c1.2,5.5-2.3,11-7.8,12.3c-5.5,1.2-11-2.3-12.3-7.8
							c-1.2-5.5,2.3-11,7.8-12.3C108.6,115.9,114.1,119.4,115.3,124.9z"/>
						
							<ellipse id="XMLID_898_" transform="matrix(0.3302 -0.9439 0.9439 0.3302 -68.8052 191.032)" class="st2" cx="100.2" cy="144" rx="10.3" ry="10.3"/>
						<path id="XMLID_897_" class="st2" d="M120.5,138.6c1.2,5.5-2.3,11-7.8,12.3c-5.5,1.2-11-2.3-12.3-7.8
							c-1.2-5.5,2.3-11,7.8-12.3C113.8,129.6,119.3,133.1,120.5,138.6z"/>
					</g>
					<g id="XMLID_892_">
						<path id="XMLID_895_" class="st9" d="M99.4,164.5L99.4,164.5c-0.4,0-0.7-0.3-0.7-0.7v-37.4c0-0.4,0.3-0.7,0.7-0.7l0,0
							c0.4,0,0.7,0.3,0.7,0.7v37.4C100.2,164.2,99.8,164.5,99.4,164.5z"/>
						<path id="XMLID_894_" class="st9" d="M99.1,144.8L99.1,144.8c-0.3-0.3-0.3-0.7,0-1l4-4c0.3-0.3,0.7-0.3,1,0l0,0
							c0.3,0.3,0.3,0.7,0,1l-4,4C99.9,145.1,99.4,145.1,99.1,144.8z"/>
						<path id="XMLID_893_" class="st9" d="M99.9,132.8L99.9,132.8c0.3-0.3,0.3-0.7,0-1l-4-4c-0.3-0.3-0.7-0.3-1,0l0,0
							c-0.3,0.3-0.3,0.7,0,1l4,4C99.1,133.1,99.6,133.1,99.9,132.8z"/>
					</g>
				</g>
			</g>
		</g>
		<g>
			<g>
				<g>
					<g>
						<g>
							<path id="XMLID_1030_" class="st2" d="M264.5,65.6h-38c0.3-2.7,2.5-4.8,5.3-4.8c0.3-2.7,2.6-4.8,5.3-4.8
								c1.9,0,3.5,0.9,4.4,2.4c0.9-0.7,2.1-1.2,3.4-1.2c1.3,0,2.5,0.5,3.4,1.3c1-1.2,2.4-1.9,4.1-1.9c2.5,0,4.6,1.7,5.2,4
								c0.5-0.2,1-0.2,1.6-0.2C262.1,60.3,264.5,62.7,264.5,65.6z"/>
							<path id="XMLID_1029_" class="st2" d="M315.7,97.9h-33.5c0.4-2.6,2.6-4.5,5.3-4.5c0.4,0,0.8,0.1,1.2,0.1
								c0.7-2.2,2.7-3.8,5.1-3.8c1.4,0,2.6,0.5,3.5,1.4c0.7-0.3,1.4-0.5,2.2-0.5c1.7,0,3.2,0.8,4.2,2c0.9-1.8,2.7-3,4.8-3
								c2.9,0,5.3,2.4,5.3,5.3c0,0.4,0,0.7-0.1,1.1C314.6,96.5,315.2,97.1,315.7,97.9z"/>
						</g>
						<g>
							<path id="XMLID_1028_" class="st2" d="M118.7,73.5H94.2c0.3-1.9,1.6-3.5,3.4-4.2c0.8-1.9,2.7-3.2,4.9-3.2
								c1.7,0,3.1,0.8,4.1,1.9c1-1,2.3-1.7,3.9-1.7c2.4,0,4.5,1.6,5.1,3.8C117.1,70.8,118.2,72,118.7,73.5z"/>
							<path id="XMLID_888_" class="st2" d="M115.2,176.7h-6.7c0.1-1.3,1.6-2.4,3.3-2.4C113.6,174.3,115.1,175.4,115.2,176.7z"/>
							<g>
								<g id="XMLID_1079_">
									<path id="XMLID_1093_" class="st2" d="M299.6,245.5h-11.8c0.2-2.4,2.8-4.3,5.9-4.3C296.8,241.2,299.4,243.1,299.6,245.5z"
										/>
									<path id="XMLID_1095_" class="st2" d="M310.1,245.5H293c0.3-3.5,4.1-6.2,8.6-6.2S309.8,242,310.1,245.5z"/>
								</g>
								<path id="XMLID_887_" class="st2" d="M301.5,190.1h-4.3c0.1-0.9,1-1.6,2.2-1.6C300.4,188.5,301.4,189.2,301.5,190.1z"/>
							</g>
						</g>
					</g>
					<g>
						<g>
							<path id="XMLID_886_" class="st2" d="M106.6,197.9h-4.3c0.1-0.9,1-1.6,2.2-1.6C105.6,196.3,106.5,197,106.6,197.9z"/>
							<g id="XMLID_882_">
								<path id="XMLID_885_" class="st2" d="M139.9,199.6L139.9,199.6c0.1,0.1,0.2,0,0.3-0.1l1.3-2.2c0.1-0.1,0-0.2-0.1-0.3l0,0
									c-0.1-0.1-0.2,0-0.3,0.1l-1.3,2.2C139.8,199.4,139.8,199.5,139.9,199.6z"/>
								<path id="XMLID_884_" class="st2" d="M140,199.6L140,199.6c0.1,0,0.2-0.1,0.2-0.3l-0.6-2.5c0-0.1-0.1-0.2-0.3-0.2l0,0
									c-0.1,0-0.2,0.1-0.2,0.3l0.6,2.5C139.8,199.5,139.9,199.6,140,199.6z"/>
								<path id="XMLID_883_" class="st2" d="M139.9,199.5L139.9,199.5c0,0.1,0.1,0.1,0.2,0l1.6-1.1c0.1,0,0.1-0.1,0-0.2l0,0
									c0-0.1-0.1-0.1-0.2,0l-1.6,1.1C139.9,199.4,139.8,199.5,139.9,199.5z"/>
							</g>
						</g>
						<g>
							<g id="XMLID_1069_">
								<path id="XMLID_1072_" class="st2" d="M296.4,201.9L296.4,201.9c0.1,0.1,0.2,0,0.3-0.1l1.3-2.2c0.1-0.1,0-0.2-0.1-0.3l0,0
									c-0.1-0.1-0.2,0-0.3,0.1l-1.3,2.2C296.2,201.7,296.3,201.8,296.4,201.9z"/>
								<path id="XMLID_1071_" class="st2" d="M296.5,201.9L296.5,201.9c0.1,0,0.2-0.1,0.2-0.3l-0.6-2.5c0-0.1-0.1-0.2-0.3-0.2l0,0
									c-0.1,0-0.2,0.1-0.2,0.3l0.6,2.5C296.3,201.8,296.4,201.9,296.5,201.9z"/>
								<path id="XMLID_1070_" class="st2" d="M296.4,201.8L296.4,201.8c0,0.1,0.1,0.1,0.2,0l1.6-1.1c0.1,0,0.1-0.1,0-0.2l0,0
									c0-0.1-0.1-0.1-0.2,0l-1.6,1.1C296.3,201.6,296.3,201.7,296.4,201.8z"/>
							</g>
							<g id="XMLID_1085_">
								<path id="XMLID_1088_" class="st2" d="M103.7,226.3L103.7,226.3c0.3,0,0.6-0.2,0.6-0.5l0.7-7.1c0-0.3-0.2-0.6-0.5-0.6l0,0
									c-0.3,0-0.6,0.2-0.6,0.5l-0.7,7.1C103.1,226,103.3,226.3,103.7,226.3z"/>
								<path id="XMLID_1087_" class="st2" d="M104,226.2L104,226.2c0.2-0.2,0.3-0.6,0.1-0.8l-4.5-5.5c-0.2-0.2-0.6-0.3-0.8-0.1l0,0
									c-0.2,0.2-0.3,0.6-0.1,0.8l4.5,5.5C103.4,226.3,103.8,226.4,104,226.2z"/>
								<path id="XMLID_1086_" class="st2" d="M103.6,226.2L103.6,226.2c0.2,0.1,0.5,0,0.6-0.2l2.6-4.6c0.1-0.2,0-0.5-0.2-0.6l0,0
									c-0.2-0.1-0.5,0-0.6,0.2l-2.6,4.6C103.3,225.9,103.4,226.1,103.6,226.2z"/>
							</g>
						</g>
					</g>
				</g>
				<g>
					<g id="XMLID_1089_">
						<path id="XMLID_1092_" class="st2" d="M299,223.6L299,223.6c0.2-0.1,0.4-0.3,0.3-0.5l-1.4-5.3c-0.1-0.2-0.3-0.4-0.5-0.3l0,0
							c-0.2,0.1-0.4,0.3-0.3,0.5l1.4,5.3C298.5,223.5,298.7,223.6,299,223.6z"/>
						<path id="XMLID_1091_" class="st2" d="M299.2,223.4L299.2,223.4c0.1-0.2,0-0.5-0.2-0.6l-4.8-2.7c-0.2-0.1-0.5,0-0.6,0.2l0,0
							c-0.1,0.2,0,0.5,0.2,0.6l4.8,2.7C298.8,223.6,299,223.6,299.2,223.4z"/>
						<path id="XMLID_1090_" class="st2" d="M298.9,223.5L298.9,223.5c0.2,0,0.3-0.1,0.4-0.3l0.6-4c0-0.2-0.1-0.3-0.3-0.4l0,0
							c-0.2,0-0.3,0.1-0.4,0.3l-0.6,4C298.6,223.3,298.7,223.5,298.9,223.5z"/>
					</g>
					<g id="XMLID_878_">
						<path id="XMLID_881_" class="st2" d="M157.8,204.2L157.8,204.2c0.2,0.1,0.4,0,0.5-0.1l2.5-4.2c0.1-0.2,0-0.4-0.1-0.5l0,0
							c-0.2-0.1-0.4,0-0.5,0.1l-2.5,4.2C157.6,203.9,157.6,204.1,157.8,204.2z"/>
						<path id="XMLID_880_" class="st2" d="M158.1,204.2L158.1,204.2c0.2-0.1,0.3-0.3,0.3-0.5l-1.2-4.7c-0.1-0.2-0.3-0.3-0.5-0.3
							l0,0c-0.2,0.1-0.3,0.3-0.3,0.5l1.2,4.7C157.7,204.2,157.9,204.3,158.1,204.2z"/>
						<path id="XMLID_879_" class="st2" d="M157.8,204.2L157.8,204.2c0.1,0.1,0.3,0.2,0.4,0.1l2.9-2.1c0.1-0.1,0.2-0.3,0.1-0.4l0,0
							c-0.1-0.1-0.3-0.2-0.4-0.1l-2.9,2.1C157.7,203.8,157.7,204,157.8,204.2z"/>
					</g>
				</g>
			</g>
			<g>
				<g id="XMLID_1073_">
					<path id="XMLID_1076_" class="st2" d="M348.8,202.2L348.8,202.2c0.2,0,0.4-0.2,0.4-0.4l-0.4-4.9c0-0.2-0.2-0.4-0.4-0.4l0,0
						c-0.2,0-0.4,0.2-0.4,0.4l0.4,4.9C348.4,202.1,348.6,202.2,348.8,202.2z"/>
					<path id="XMLID_1075_" class="st2" d="M349,202.1L349,202.1c0.1-0.2,0.1-0.4,0-0.6l-3.7-3.2c-0.2-0.1-0.4-0.1-0.6,0l0,0
						c-0.1,0.2-0.1,0.4,0,0.6l3.7,3.2C348.6,202.3,348.9,202.2,349,202.1z"/>
					<path id="XMLID_1074_" class="st2" d="M348.8,202.2L348.8,202.2c0.1,0.1,0.3,0,0.4-0.2l1.2-3.4c0.1-0.1,0-0.3-0.2-0.4l0,0
						c-0.1-0.1-0.3,0-0.4,0.2l-1.2,3.4C348.5,201.9,348.6,202.1,348.8,202.2z"/>
				</g>
				<g id="XMLID_874_">
					<path id="XMLID_877_" class="st2" d="M119.8,203L119.8,203c0.2,0,0.4-0.2,0.4-0.4l0-4.9c0-0.2-0.2-0.4-0.4-0.4l0,0
						c-0.2,0-0.4,0.2-0.4,0.4l0,4.9C119.4,202.9,119.6,203,119.8,203z"/>
					<path id="XMLID_876_" class="st2" d="M120.1,202.9L120.1,202.9c0.2-0.2,0.2-0.4,0-0.6l-3.4-3.5c-0.2-0.2-0.4-0.2-0.6,0l0,0
						c-0.2,0.2-0.2,0.4,0,0.6l3.4,3.5C119.6,203.1,119.9,203.1,120.1,202.9z"/>
					<path id="XMLID_875_" class="st2" d="M119.8,203L119.8,203c0.1,0.1,0.3,0,0.4-0.1l1.5-3.3c0.1-0.1,0-0.3-0.1-0.4l0,0
						c-0.1-0.1-0.3,0-0.4,0.1l-1.5,3.3C119.6,202.7,119.6,202.9,119.8,203z"/>
				</g>
			</g>
		</g>
		<g>
			<g id="XMLID_837_">
				<g id="XMLID_865_">
					<rect id="XMLID_869_" x="194.6" y="-18.2" class="st10" width="0.6" height="76"/>
					<rect id="XMLID_868_" x="197.8" y="-18.2" class="st10" width="0.6" height="76"/>
					<rect id="XMLID_867_" x="200.9" y="-18.2" class="st10" width="0.6" height="76"/>
					<rect id="XMLID_866_" x="204" y="-18.2" class="st10" width="0.6" height="76"/>
				</g>
				<g id="XMLID_838_">
					<g id="XMLID_853_">
						<g id="XMLID_862_">
							<path id="XMLID_864_" class="st7" d="M202.7,72.6c-0.1,1.6-0.9,3-2.1,3.9c-0.1,0.1-0.3,0.2-0.5,0.3c-0.6,0.3-1.3,0.6-2.1,0.6
								c-0.2,0-0.4,0-0.7,0c-0.2,0-0.4,0-0.5-0.1c-1.1-0.2-2-0.7-2.7-1.4c-0.1-0.1-0.3-0.3-0.4-0.4c-0.7-0.8-1.1-1.9-1.1-3
								c0-0.1,0.1-0.2,0.2-0.2c0,0,0.1,0,0.1,0c0,0,0,0,0,0l0,0l1.2,1.2c0.2,0.2,0.4,0.4,0.7,0.5c0.2,0.1,0.3,0.2,0.5,0.2
								c0.5,0.2,1,0.3,1.5,0.3c0.2,0,0.4,0,0.5-0.1c0.2,0,0.4-0.1,0.5-0.1c0.1,0,0.2-0.1,0.3-0.1c0.2-0.1,0.3-0.2,0.5-0.3
								c0.2-0.1,0.4-0.3,0.6-0.5h0c1.4-1.4,1.4-3.7,0-5.1l-1.2-1.2c-0.1-0.1-0.2-0.3-0.2-0.4v-5.4c0-0.1,0-0.2,0-0.3
								c0.1-0.8,0.9-1.5,1.7-1.5c0.5,0,0.9,0.2,1.3,0.5c0.3,0.3,0.4,0.6,0.5,1c0,0.1,0,0.2,0,0.2v6.7c0,0.5,0.1,0.9,0.4,1.3
								C202.4,70.4,202.8,71.4,202.7,72.6z"/>
							<rect id="XMLID_863_" x="197.9" y="64.1" class="st6" width="3.5" height="1.7"/>
						</g>
						<path id="XMLID_861_" class="st10" d="M201.8,64.7h-4c-0.2,0-0.5-0.1-0.6-0.4l-3.1-6.4c-0.2-0.4,0.1-0.9,0.6-0.9h10.2
							c0.5,0,0.8,0.5,0.6,0.9l-3.1,6.4C202.2,64.5,202,64.7,201.8,64.7z"/>
						<g id="XMLID_854_">
							<path id="XMLID_860_" class="st3" d="M195.7,61.3l1.4,3c0.1,0.2,0.3,0.4,0.6,0.4h0.8l-1.4-3.4H195.7z"/>
							<polygon id="XMLID_859_" class="st5" points="197.1,61.3 197.1,61.3 198.5,64.7 200,64.7 198.6,61.3 							"/>
							<polygon id="XMLID_858_" class="st3" points="198.6,61.3 198.6,61.3 200,64.7 201.4,64.7 200,61.3 							"/>
							<path id="XMLID_857_" class="st5" d="M201.5,61.3H200h0l1.4,3.4h0.4c0.2,0,0.5-0.1,0.6-0.4l0.2-0.4L201.5,61.3z"/>
							<polygon id="XMLID_856_" class="st3" points="203.3,62.3 202.9,61.3 201.5,61.3 201.5,61.3 202.6,63.9 							"/>
							<polygon id="XMLID_855_" class="st5" points="203.8,61.3 202.9,61.3 202.9,61.3 203.3,62.3 							"/>
						</g>
					</g>
					<g id="XMLID_846_">
						<g id="XMLID_851_">
							<path id="XMLID_852_" class="st6" d="M195.3,74.4l-1.2,1.5c-0.1-0.1-0.3-0.3-0.4-0.4l1.1-1.4C195,74.3,195.2,74.4,195.3,74.4
								z"/>
						</g>
						<g id="XMLID_849_">
							<path id="XMLID_850_" class="st6" d="M200.6,76.5c-0.1,0.1-0.3,0.2-0.5,0.3l-1.9-2.4c0.2-0.1,0.3-0.2,0.5-0.3L200.6,76.5z"/>
						</g>
						<g id="XMLID_847_">
							<path id="XMLID_848_" class="st6" d="M197.4,74.6v2.8c-0.2,0-0.4,0-0.5-0.1v-2.6C197,74.7,197.2,74.7,197.4,74.6z"/>
						</g>
					</g>
					<g id="XMLID_839_">
						<g id="XMLID_844_">
							<path id="XMLID_845_" class="st5" d="M187.1,83.9c-0.1,0-0.1,0-0.2-0.1c-0.1-0.1-0.1-0.3,0-0.4l7.7-9.7
								c0.1-0.1,0.3-0.1,0.4,0c0.1,0.1,0.1,0.3,0,0.4l-7.7,9.7C187.3,83.9,187.2,83.9,187.1,83.9z"/>
						</g>
						<g id="XMLID_842_">
							<path id="XMLID_843_" class="st5" d="M206.4,83.9c-0.1,0-0.2,0-0.2-0.1l-7.7-9.7c-0.1-0.1-0.1-0.3,0-0.4
								c0.1-0.1,0.3-0.1,0.4,0l7.7,9.7c0.1,0.1,0.1,0.3,0,0.4C206.5,83.9,206.4,83.9,206.4,83.9z"/>
						</g>
						<g id="XMLID_840_">
							<path id="XMLID_841_" class="st5" d="M196.9,84.4c-0.1,0-0.3-0.1-0.3-0.3v-9.7c0-0.1,0.1-0.3,0.3-0.3c0.1,0,0.3,0.1,0.3,0.3
								v9.7C197.1,84.3,197,84.4,196.9,84.4z"/>
						</g>
					</g>
				</g>
			</g>
			<g>
				<g id="XMLID_822_">
					<g id="XMLID_1_">
						<path id="XMLID_5_" class="st11" d="M224.3,204h-50.1c0,0,9.3-3.4,9.3-26.2H215c0,1.5,0,3,0.1,4.3
							C216.2,201,224.3,204,224.3,204z"/>
						<path id="XMLID_4_" class="st11" d="M224.4,204.8H174c-0.2,0-0.3-0.1-0.3-0.3v-0.3c0-0.2,0.1-0.3,0.3-0.3h50.4
							c0.2,0,0.3,0.1,0.3,0.3v0.3C224.8,204.7,224.6,204.8,224.4,204.8z"/>
					</g>
					<path id="XMLID_2_" class="st12" d="M252.4,114.2v63.2c0,3.1-2.5,5.6-5.6,5.6h-94.4c-3.1,0-5.6-2.5-5.6-5.6v-63.2
						c0-2.4,1.6-4.5,3.7-5.3c0.6-0.2,1.2-0.3,1.9-0.3h94.4C249.9,108.6,252.4,111.1,252.4,114.2z"/>
					<path id="XMLID_3_" class="st6" d="M252.4,114.2V173H146.8v-58.7c0-0.1,0-0.2,0-0.2c0-0.1,0-0.2,0-0.2c0-0.1,0-0.1,0-0.2
						c0-0.1,0-0.3,0.1-0.4c0-0.2,0.1-0.4,0.2-0.6c0-0.1,0-0.1,0.1-0.2c0-0.1,0-0.1,0.1-0.2c0.2-0.4,0.4-0.8,0.6-1.1
						c0.2-0.2,0.4-0.4,0.5-0.6c0.6-0.6,1.3-1.1,2.1-1.4c0.2-0.1,0.4-0.1,0.7-0.2c0.1,0,0.3-0.1,0.5-0.1c0.1,0,0.3,0,0.4,0
						c0.1,0,0.2,0,0.3,0h94.5c0.4,0,0.8,0,1.1,0.1c0.2,0,0.4,0.1,0.5,0.1c0.1,0,0.2,0.1,0.3,0.1c0.6,0.2,1.2,0.5,1.6,0.9
						c0.1,0.1,0.3,0.2,0.4,0.4C251.8,111.3,252.4,112.7,252.4,114.2z"/>
					<g id="XMLID_831_">
						<path id="XMLID_833_" class="st12" d="M222.9,204h-50.1c0,0,9.3-3.4,9.3-26.2h31.6c0,1.5,0,3,0.1,4.3
							C214.8,201,222.9,204,222.9,204z"/>
						<path id="XMLID_832_" class="st11" d="M223,204.8h-50.4c-0.2,0-0.3-0.1-0.3-0.3v-0.3c0-0.2,0.1-0.3,0.3-0.3H223
							c0.2,0,0.3,0.1,0.3,0.3v0.3C223.3,204.7,223.2,204.8,223,204.8z"/>
					</g>
					<path id="XMLID_830_" class="st11" d="M213.7,183c-0.4,0.1-1,0.2-1.7,0.2c-14.3,0-16.4,11.9-21.1,16.9
						c-2.2,2.3-4.4,3.3-6.3,3.8h-12c0,0,9.3-3.4,9.3-26.2h31.6C213.6,179.3,213.6,181.7,213.7,183z"/>
					<path id="XMLID_829_" class="st5" d="M250.6,114.2v63.2c0,3.1-2.5,5.6-5.6,5.6h-94.4c-3.1,0-5.6-2.5-5.6-5.6v-63.2
						c0-2.4,1.6-4.5,3.7-5.3c0.6-0.2,1.2-0.3,1.9-0.3H245C248.1,108.6,250.6,111.1,250.6,114.2z"/>
					<path id="XMLID_782_" class="st13" d="M250.6,114.2V173H145v-58.7c0-0.1,0-0.2,0-0.2c0-0.1,0-0.2,0-0.2c0-0.1,0-0.1,0-0.2
						c0-0.1,0-0.3,0.1-0.4c0-0.2,0.1-0.4,0.2-0.6c0-0.1,0-0.1,0.1-0.2c0-0.1,0-0.1,0.1-0.2c0.2-0.4,0.4-0.8,0.6-1.1
						c0.2-0.2,0.4-0.4,0.5-0.6c0.6-0.6,1.3-1.1,2.1-1.4c0.2-0.1,0.4-0.1,0.7-0.2c0.1,0,0.3-0.1,0.5-0.1c0.1,0,0.3,0,0.4,0
						c0.1,0,0.2,0,0.3,0H245c0.4,0,0.8,0,1.1,0.1c0.2,0,0.4,0.1,0.5,0.1c0.1,0,0.2,0.1,0.3,0.1c0.6,0.2,1.2,0.5,1.6,0.9
						c0.1,0.1,0.3,0.2,0.4,0.4C250,111.3,250.6,112.7,250.6,114.2z"/>
					<circle id="XMLID_827_" class="st12" cx="197.2" cy="177.9" r="2.9"/>
					<path id="XMLID_823_" class="st7" d="M249,110.3c-0.1-0.1-0.3-0.2-0.4-0.4c-0.5-0.4-1-0.7-1.6-0.9c-0.1,0-0.2-0.1-0.3-0.1
						c-0.2-0.1-0.4-0.1-0.5-0.1c-0.4-0.1-0.8-0.1-1.1-0.1h-94.5c-0.1,0-0.2,0-0.3,0c-0.1,0-0.3,0-0.4,0c-0.2,0-0.3,0.1-0.5,0.1
						c-0.9,0.2-1.7,0.6-2.3,1.1c0,0,0,0,0,0c-0.2,0.1-0.3,0.3-0.5,0.4c-0.2,0.2-0.4,0.4-0.5,0.6c-0.3,0.3-0.5,0.7-0.6,1.1
						c0,0.1-0.1,0.1-0.1,0.2c0,0.1-0.1,0.1-0.1,0.2c-0.1,0.2-0.1,0.4-0.2,0.6c0,0.1-0.1,0.3-0.1,0.4c0,0.1,0,0.1,0,0.2
						c0,0.1,0,0.1,0,0.2c0,0.1,0,0.1,0,0.2V173h105.6v-58.7C250.6,112.7,250,111.3,249,110.3z M246.2,167.5h-96.9v-53.2
						c0-0.7,0.5-1.2,1.2-1.2H245c0.7,0,1.2,0.5,1.2,1.2V167.5z"/>
				</g>
				<g>
					<path id="XMLID_780_" class="st14" d="M244.6,108.6v45.1c0,2-1.7,3.7-3.7,3.7h-83.5c-2,0-3.7-1.7-3.7-3.7v-45.1H244.6z"/>
					<g id="XMLID_803_">
						<path id="XMLID_820_" class="st15" d="M242.2,85.5v63.4c0,2-1.7,3.7-3.7,3.7H155c-2,0-3.7-1.7-3.7-3.7V85.5
							c0-2,1.7-3.7,3.7-3.7h83.5C240.6,81.8,242.2,83.5,242.2,85.5z"/>
						<path id="XMLID_819_" class="st3" d="M242.2,85.5v12.6h-90.9V85.5c0-2,1.7-3.7,3.7-3.7h83.5C240.6,81.8,242.2,83.5,242.2,85.5
							z"/>
						<path id="XMLID_818_" class="st5" d="M234.5,92.6h-46.9c-1.5,0-2.7-1.2-2.7-2.7l0,0c0-1.5,1.2-2.7,2.7-2.7h46.9
							c1.5,0,2.7,1.2,2.7,2.7l0,0C237.1,91.4,235.9,92.6,234.5,92.6z"/>
						<path id="XMLID_817_" class="st16" d="M162.6,89.8c0,1.4-1.2,2.6-2.6,2.6s-2.6-1.2-2.6-2.6c0-1.4,1.2-2.6,2.6-2.6
							S162.6,88.3,162.6,89.8z"/>
						<path id="XMLID_816_" class="st17" d="M169.3,89.8c0,1.4-1.2,2.6-2.6,2.6c-1.4,0-2.6-1.2-2.6-2.6c0-1.4,1.2-2.6,2.6-2.6
							C168.1,87.2,169.3,88.3,169.3,89.8z"/>
						<path id="XMLID_815_" class="st18" d="M176,89.8c0,1.4-1.2,2.6-2.6,2.6c-1.4,0-2.6-1.2-2.6-2.6c0-1.4,1.2-2.6,2.6-2.6
							C174.8,87.2,176,88.3,176,89.8z"/>
						<path id="XMLID_814_" class="st14" d="M192,140.9h-29.3c-2.8,0-5.1-2.3-5.1-5.1v-23.7c0-2.8,2.3-5.1,5.1-5.1H192
							c2.8,0,5.1,2.3,5.1,5.1v23.7C197,138.7,194.7,140.9,192,140.9z"/>
						<path id="XMLID_813_" class="st5" d="M190.8,139.8h-29.3c-2.8,0-5.1-2.3-5.1-5.1V111c0-2.8,2.3-5.1,5.1-5.1h29.3
							c2.8,0,5.1,2.3,5.1,5.1v23.7C195.9,137.5,193.6,139.8,190.8,139.8z"/>
						<path id="XMLID_812_" class="st5" d="M237.6,110.7h-37.7c-0.5,0-0.9-0.4-0.9-0.9v-0.3c0-0.5,0.4-0.9,0.9-0.9h37.7
							c0.5,0,0.9,0.4,0.9,0.9v0.3C238.4,110.3,238.1,110.7,237.6,110.7z"/>
						<path id="XMLID_811_" class="st5" d="M237.6,115.6h-37.7c-0.5,0-0.9-0.4-0.9-0.9v-0.3c0-0.5,0.4-0.9,0.9-0.9h37.7
							c0.5,0,0.9,0.4,0.9,0.9v0.3C238.4,115.3,238.1,115.6,237.6,115.6z"/>
						<path id="XMLID_810_" class="st5" d="M237.6,120.5h-37.7c-0.5,0-0.9-0.4-0.9-0.9v-0.3c0-0.5,0.4-0.9,0.9-0.9h37.7
							c0.5,0,0.9,0.4,0.9,0.9v0.3C238.4,120.2,238.1,120.5,237.6,120.5z"/>
						<path id="XMLID_809_" class="st5" d="M237.6,125.5h-37.7c-0.5,0-0.9-0.4-0.9-0.9v-0.3c0-0.5,0.4-0.9,0.9-0.9h37.7
							c0.5,0,0.9,0.4,0.9,0.9v0.3C238.4,125.1,238.1,125.5,237.6,125.5z"/>
						<path id="XMLID_808_" class="st5" d="M237.6,130.4h-37.7c-0.5,0-0.9-0.4-0.9-0.9v-0.3c0-0.5,0.4-0.9,0.9-0.9h37.7
							c0.5,0,0.9,0.4,0.9,0.9v0.3C238.4,130,238.1,130.4,237.6,130.4z"/>
						<path id="XMLID_773_" class="st5" d="M237.6,144.5h-37.7c-0.5,0-0.9-0.4-0.9-0.9v-0.3c0-0.5,0.4-0.9,0.9-0.9h37.7
							c0.5,0,0.9,0.4,0.9,0.9v0.3C238.4,144.1,238.1,144.5,237.6,144.5z"/>
						<path id="XMLID_774_" class="st5" d="M237.4,149.5h-79.7c-0.6,0-1-0.5-1-1l0,0c0-0.6,0.5-1,1-1h79.7c0.6,0,1,0.5,1,1l0,0
							C238.4,149.1,238,149.5,237.4,149.5z"/>
						<path id="XMLID_807_" class="st3" d="M206.6,136.4c0,1.8-1.5,3.3-3.3,3.3c-1.8,0-3.3-1.5-3.3-3.3c0-1.8,1.5-3.3,3.3-3.3
							C205.1,133.1,206.6,134.6,206.6,136.4z"/>
						<path id="XMLID_806_" class="st5" d="M222.7,136.4c0,1.8-1.5,3.3-3.3,3.3c-1.8,0-3.3-1.5-3.3-3.3c0-1.8,1.5-3.3,3.3-3.3
							C221.2,133.1,222.7,134.6,222.7,136.4z"/>
						<path id="XMLID_805_" class="st3" d="M238.7,136.4c0,1.8-1.5,3.3-3.3,3.3c-1.8,0-3.3-1.5-3.3-3.3c0-1.8,1.5-3.3,3.3-3.3
							C237.3,133.1,238.7,134.6,238.7,136.4z"/>
						<rect id="XMLID_804_" x="151.3" y="98.2" class="st14" width="90.9" height="1.7"/>
					</g>
				</g>
			</g>
		</g>
		<path id="XMLID_768_" class="st2" d="M347.4,212.2h-297c-2,0-3.7-1.7-3.7-3.7l0,0c0-2,1.7-3.7,3.7-3.7h297c2,0,3.7,1.7,3.7,3.7
			l0,0C351.1,210.6,349.5,212.2,347.4,212.2z"/>
		<g>
			<g>
				<g>
					<g>
						<g>
							<g>
								<g>
									<g>
										<g>
											<circle class="st19" cx="256.4" cy="77.2" r="1.4"/>
											<circle class="st19" cx="129.5" cy="94.6" r="1.4"/>
										</g>
										<circle class="st19" cx="164.4" cy="159.4" r="1.4"/>
									</g>
									<circle class="st19" cx="258.5" cy="116.2" r="1.4"/>
								</g>
								<g>
									<line class="st20" x1="218.8" y1="68.9" x2="222.4" y2="72.5"/>
									<line class="st20" x1="222.4" y1="68.9" x2="218.8" y2="72.5"/>
								</g>
							</g>
							<g>
								<line class="st20" x1="148.2" y1="66.7" x2="150.7" y2="69.1"/>
								<line class="st20" x1="150.7" y1="66.7" x2="148.2" y2="69.1"/>
							</g>
						</g>
						<g>
							<line class="st20" x1="131.5" y1="140.6" x2="134" y2="143"/>
							<line class="st20" x1="134" y1="140.6" x2="131.5" y2="143"/>
						</g>
					</g>
					<g>
						<line class="st20" x1="247.9" y1="146.9" x2="250.4" y2="149.3"/>
						<line class="st20" x1="250.4" y1="146.9" x2="247.9" y2="149.3"/>
					</g>
				</g>
				<g>
					<line class="st20" x1="188.1" y1="39.7" x2="188.1" y2="60.6"/>
					<line class="st20" x1="185.3" y1="48.1" x2="185.3" y2="60.6"/>
				</g>
			</g>
			<g>
				<line class="st20" x1="210.4" y1="34.8" x2="210.4" y2="60.6"/>
				<line class="st20" x1="213.2" y1="51.6" x2="213.2" y2="60.6"/>
			</g>
		</g>
	</g>
</g>
</svg>
