<?xml version="1.0" encoding="UTF-8"?>
<svg width="185px" height="213px" viewBox="0 0 185 213" version="1.1" xmlns="http://www.w3.org/2000/svg" xmlns:xlink="http://www.w3.org/1999/xlink">
    <!-- Generator: Sketch 50.2 (55047) - http://www.bohemiancoding.com/sketch -->
    <title>Shape</title>
    <desc>Created with Sketch.</desc>
    <defs>
        <linearGradient x1="0%" y1="0%" x2="100%" y2="100%" id="linearGradient-1">
            <stop stop-color="#FFAF23" offset="0%"></stop>
            <stop stop-color="#FFFFFF" offset="100%"></stop>
        </linearGradient>
    </defs>
    <g id="Page-1" stroke="none" stroke-width="1" fill="none" fill-rule="evenodd" fill-opacity="0.2">
        <g id="Home" transform="translate(-1361.000000, -1260.000000)" fill="url(#linearGradient-1)" fill-rule="nonzero">
            <g id="pack" transform="translate(374.000000, 1008.000000)">
                <g id="1" transform="translate(0.000000, 128.000000)">
                    <g id="content" transform="translate(803.000000, 124.000000)">
                        <g id="bg">
                            <path d="M397.594926,4.34249288 C397.16056,1.22331909 394.915986,-1.3424359 391.881752,-2.18574074 L294.634437,-29.2263105 C293.248052,-29.6121225 291.783649,-29.6121225 290.396209,-29.2263105 L193.148895,-2.18574074 C190.11466,-1.3424359 187.870086,1.22226496 187.43572,4.34249288 C186.871677,8.39773504 174.00412,104.214031 207.008535,151.879729 C239.97394,199.488504 288.604977,211.689017 290.658726,212.185513 C291.269157,212.333091 291.891186,212.405826 292.515323,212.405826 C293.13946,212.405826 293.761489,212.332037 294.37192,212.185513 C296.426723,211.689017 345.05776,199.488504 378.022112,151.879729 C411.026526,104.215085 398.158969,8.39878917 397.594926,4.34249288 Z M355.2274,60.2810114 L288.894906,126.603775 C287.351432,128.147023 285.327203,128.919701 283.304029,128.919701 C281.280855,128.919701 279.256626,128.148077 277.713152,126.603775 L236.700383,85.5970228 C235.217003,84.1149145 234.384117,82.1036325 234.384117,80.0069658 C234.384117,77.9102991 235.218057,75.8990171 236.700383,74.4169088 L244.843686,66.2748006 C247.931689,63.1883048 252.938492,63.1872507 256.02544,66.2748006 L283.304029,93.5493875 L335.902343,40.957735 C337.384669,39.4745726 339.396246,38.6418091 341.49322,38.6418091 C343.590195,38.6418091 345.601772,39.4745726 347.084097,40.957735 L355.2274,49.0998433 C358.315403,52.1873932 358.315403,57.1934615 355.2274,60.2810114 Z" id="Shape" style="mix-blend-mode: overlay;"></path>
                        </g>
                    </g>
                </g>
            </g>
        </g>
    </g>
</svg>